<svg width="426" height="318" viewBox="0 0 426 318" fill="none" xmlns="http://www.w3.org/2000/svg">
<g clip-path="url(#clip0_53_129)">
<path fill-rule="evenodd" clip-rule="evenodd" d="M220.808 57.9768C244.388 88.6995 246.827 137.088 247.524 161.628C240.874 156.717 227.075 170.256 220.425 165.346C218.417 138.627 210.444 108.09 208.437 81.3709C210.624 74.9231 218.622 64.4247 220.808 57.9768Z" fill="#474443"/>
<path fill-rule="evenodd" clip-rule="evenodd" d="M121.967 80.0178C125.556 163.786 146.176 180.116 151.354 184.481C148.621 175.44 146.455 165.698 149.723 149.209C164.145 163.646 169.818 173.454 172.366 182.355C174.172 180.593 175.978 178.832 177.784 177.07C179.079 169.586 180.467 167.28 181.231 159.752C184.101 166.052 183.889 170.182 184.512 169.905C215.162 165.111 142.061 103.775 121.967 80.0178Z" fill="#474443"/>
<path fill-rule="evenodd" clip-rule="evenodd" d="M180.763 168.222L193.911 166.234L225.342 161.251L198.097 194.563L173.08 185.024L180.763 168.222Z" fill="#DCDDDD"/>
<path fill-rule="evenodd" clip-rule="evenodd" d="M182.561 149.113C185.901 161.019 187.88 173.768 186.544 185.226C186.764 188.01 184.166 189.744 184.387 192.527C201.854 190.799 217.208 185.06 227.53 169.755C223.267 153.19 219.004 136.624 214.741 120.059C204.264 129.914 191.806 140.73 182.561 149.113Z" fill="#EEEEEF"/>
<path fill-rule="evenodd" clip-rule="evenodd" d="M142.391 125.697C139.957 127.278 139.555 127.538 137.12 129.119C146.018 139.069 152.753 149.861 157.314 152.655C165.548 157.7 172.808 159.814 180.115 159.664C193.842 149.732 204.399 136.413 213.823 122.525C240.548 41.6611 124.552 42.5883 133.691 93.5715C134.731 104.759 131.695 101.344 142.391 125.697Z" fill="#FEFEFE"/>
<path fill-rule="evenodd" clip-rule="evenodd" d="M143.12 125.252L156.168 117.289L133.967 96.3269C133.941 96.342 133.917 96.3636 133.891 96.3806C134.28 104.344 132.711 103.644 142.328 125.553C142.589 125.487 142.853 125.39 143.12 125.252Z" fill="#EEEEEF"/>
<path fill-rule="evenodd" clip-rule="evenodd" d="M150.031 121.796C149.2 122.836 147.948 123.479 146.57 123.431C144.177 123.348 142.309 121.217 142.397 118.671C142.452 117.079 143.261 115.701 144.444 114.914C147.091 116.598 148.805 119.205 150.031 121.796Z" fill="#5F5D5D"/>
<path fill-rule="evenodd" clip-rule="evenodd" d="M138.377 114.367C146.72 111.396 151.729 119.272 149.972 121.859C147.868 117.648 145.2 114.716 138.377 114.367Z" fill="#5F5D5D"/>
<path fill-rule="evenodd" clip-rule="evenodd" d="M154.744 118.158L142.263 128.73C152.358 143.321 154.715 150.495 180.115 159.664C172.808 159.814 165.549 157.7 157.314 152.655C152.754 149.861 146.018 139.069 137.121 129.119C139.555 127.539 139.957 127.278 142.391 125.697C142.075 125.17 141.88 124.598 141.663 124.032L142.328 125.553C142.589 125.487 142.853 125.39 143.12 125.252L154.742 118.158L154.744 118.158Z" fill="#DCDDDD"/>
<path d="M176.706 111.759C179.777 111.866 182.353 109.463 182.459 106.392C182.566 103.322 180.163 100.746 177.092 100.64C174.022 100.533 171.446 102.936 171.34 106.006C171.233 109.077 173.636 111.652 176.706 111.759Z" fill="#5F5D5D"/>
<path fill-rule="evenodd" clip-rule="evenodd" d="M164.122 110.019C162.495 105.041 178.786 95.4512 187.564 100.421C178.692 99.2965 166.825 105.901 164.122 110.019Z" fill="#5F5D5D"/>
<path fill-rule="evenodd" clip-rule="evenodd" d="M178.896 88.1755C175.09 89.2478 160.823 93.5069 163.125 98.5598C164.316 94.7221 173.639 91.6368 178.896 88.1755Z" fill="#474443"/>
<path fill-rule="evenodd" clip-rule="evenodd" d="M121.967 80.0178C129.55 106.272 140.741 95.8238 157.915 122.829C160.395 113.377 162.567 105.045 151.665 81.2862C161.388 89.3853 173.991 97.932 188.237 103.405C189.708 103.97 191.197 104.503 192.701 104.998C194.186 105.487 195.686 105.941 197.201 106.355C201.832 135.799 206.834 156.063 204.322 171.934C212.278 158.073 215.403 140.073 216.498 122.8C219.117 133.428 223.282 139.928 228.929 146.396C223.784 100.694 238.831 87.9355 221.292 58.7349C208.205 36.9444 139.237 39.008 121.967 80.0178Z" fill="#5F5D5D"/>
<path fill-rule="evenodd" clip-rule="evenodd" d="M183.834 167.442C177.283 168.883 171.534 171.539 166.5 175.28C159.161 196.019 146.396 204.029 143.894 210.6C141.277 217.472 142.064 229.789 147.465 244.027C135.993 291.81 119.01 321.226 104.379 353.849C148.231 358.873 204.958 332.683 242.81 352.008C237.51 316.846 234.557 296.72 226.498 273.051C228.164 261.775 226.678 246.147 242.047 224.668C246.286 199.842 252.37 183.713 256.609 158.887C250.116 156.292 241.926 157.448 231.204 161.378C228.38 160.996 227.609 158.019 225.494 156.411C213.474 178.475 200.537 181.555 189.195 184.063C177.151 184.858 179.452 178.28 183.834 167.442Z" fill="#5F5D5D"/>
<path fill-rule="evenodd" clip-rule="evenodd" d="M146.215 240.475L180.494 255.457L210.306 288.672C211.521 296.507 172.596 306.76 191.178 345.674L143.611 295.593L132.994 290.285C138.301 276.628 143.254 261.566 147.465 244.027C147.013 242.837 146.595 241.66 146.207 240.498L146.215 240.475Z" fill="#474443"/>
<path fill-rule="evenodd" clip-rule="evenodd" d="M277.68 221.976C278.73 232.168 280.445 247.392 281.495 257.583C275.439 268.714 269.126 278.365 263.069 289.495C260.837 265.768 255.737 246.721 252.392 231.146C258.548 225.908 264.705 220.669 270.861 215.431C273.134 217.613 275.407 219.795 277.68 221.976Z" fill="#EEEEEF" stroke="#DCDDDD" stroke-width="0.288" stroke-miterlimit="22.9256"/>
<path fill-rule="evenodd" clip-rule="evenodd" d="M158.649 225.184C159.335 248.413 193.097 273.477 207.101 292.582L228.257 278.416C223.11 264.077 226.679 246.147 242.047 224.668C244.318 211.365 238.589 187.719 240.546 174.77C234.924 203.622 230.3 229.175 221.26 242.604C211.6 234.842 185.462 215.331 178.303 214.285C174.069 215.725 168.33 218.972 158.649 225.184Z" fill="#474443"/>
<path fill-rule="evenodd" clip-rule="evenodd" d="M236.67 190.878C237.804 207.469 243.333 230.315 246.63 245.855C251.43 237.158 256.358 227.772 270.437 220.655C274.081 220.322 277.269 221.011 279.155 223.288C277.679 209.958 274.524 191.844 272.37 186.343C268.706 174.502 259.665 157.915 254.379 158.159C238.886 157.784 234.051 173.641 236.67 190.878Z" fill="#5F5D5D"/>
<path fill-rule="evenodd" clip-rule="evenodd" d="M264.413 293.13C265.827 295.628 273.101 299.184 285.675 290.23C298.517 267.37 304.556 250.41 319.607 227.708C309.561 228.86 307.035 232.697 296.989 233.849C285.336 258.015 270.305 265.492 262.883 287.592C263.136 290.398 263.017 290.666 264.413 293.13Z" fill="#FEFEFE"/>
<path d="M264.74 292.944C264.782 293.018 264.832 293.095 264.888 293.174C265.62 294.203 267.387 295.335 270.162 295.561C273.002 295.791 276.868 295.063 281.724 292.313C282.887 291.655 284.361 291.134 284.72 289.222C289.657 280.43 294.253 271.679 298.079 263.97C304.091 251.858 308.864 241.604 317.855 227.947C313.343 228.554 311.382 229.96 308.436 231.129C305.312 232.368 302.187 233.608 297.237 234.2C291.828 245.363 285.707 252.961 279.956 260.099C273.342 268.309 267.219 275.911 263.266 287.636L263.33 288.377C263.499 290.382 263.536 290.817 264.74 292.944ZM264.273 293.611C264.204 293.514 264.141 293.414 264.085 293.316C262.796 291.04 262.757 290.577 262.577 288.439L262.5 287.55L262.526 287.473C266.522 275.574 272.698 267.908 279.369 259.627C285.125 252.482 291.254 244.874 296.649 233.685L296.739 233.498L296.946 233.474C301.922 232.904 305.041 231.666 308.159 230.429C311.326 229.172 314.495 227.915 319.564 227.334L320.369 227.241L319.921 227.917C310.694 241.834 304.856 253.596 298.756 265.887C294.913 273.63 290.964 281.584 286.003 290.414L285.962 290.488L285.893 290.537C284.571 291.479 283.304 292.284 282.096 292.969C277.086 295.806 273.069 296.554 270.103 296.313C267.072 296.067 265.106 294.782 264.273 293.611Z" fill="#DCDDDD"/>
<path fill-rule="evenodd" clip-rule="evenodd" d="M143.894 210.6C149.869 212.442 156.358 220.251 160.749 224.915L178.732 232.307L195.428 270.014L154.727 247.962L147.465 244.027C142.92 232.047 140.96 217.702 143.894 210.6Z" fill="#474443"/>
<path fill-rule="evenodd" clip-rule="evenodd" d="M305.537 202.102C304.638 201.112 304.203 200.169 305.586 197.478C310.65 194.817 313.408 187.742 314.799 187.498C318.009 190.305 315.812 193.755 315.642 196.866C312.273 198.612 308.905 200.357 305.537 202.102Z" fill="#DCDDDD"/>
<path fill-rule="evenodd" clip-rule="evenodd" d="M207.143 285.163C207.617 292.753 206.76 299.552 203.02 303.54C199.381 306.894 195.741 310.25 192.101 313.604C184.432 325.812 202.569 328.114 202.432 331.286C199.367 348.848 184.765 352.672 171.415 354.662C156.414 356.898 149.15 359.893 145.01 363.578C143.547 362.043 142.084 360.507 140.622 358.971C156.08 350.836 171.538 342.701 186.997 334.565C180.663 327.258 174.329 319.95 167.995 312.643C181.085 303.654 194.232 291.407 207.143 285.163Z" fill="#B91C1C"/>
<path fill-rule="evenodd" clip-rule="evenodd" d="M78.3569 402.765C63.6092 385.47 59.7193 361.578 66.7783 331.032C75.317 304.491 92.9603 284.24 143.243 286.533C155.098 268.734 165.901 256.541 174.891 253.986C184.007 251.462 188.923 261.406 194.78 268.588C197.458 274.309 199.793 281.541 202.471 287.263C194.79 294.751 186.713 298.945 181.143 308.111C176.033 316.519 180.173 328.391 191.661 331.177C192.969 332.113 192.031 334.885 191.486 335.954C181.736 355.116 150.307 344.372 145.01 363.578C120.456 375.37 98.3276 388.479 78.3569 402.765Z" fill="#EF4444"/>
<path fill-rule="evenodd" clip-rule="evenodd" d="M134.493 286.363C116.366 324.747 98.2395 363.132 80.1129 401.516C79.5255 401.931 78.9405 402.348 78.3569 402.765C63.6092 385.47 59.7193 361.578 66.7783 331.032C74.8015 306.093 90.8668 286.71 134.493 286.363Z" fill="#B91C1C"/>
<path fill-rule="evenodd" clip-rule="evenodd" d="M362.845 203.273L365.433 202.612L364.46 200.014L366.995 199.039L368.142 202.018L370.792 201.36C377.165 209.272 365.434 212.808 362.845 203.273Z" fill="#C9CACA"/>
<path fill-rule="evenodd" clip-rule="evenodd" d="M378.118 197.602L380.706 196.941L379.732 194.343L382.268 193.368L383.415 196.347L386.064 195.689C392.438 203.601 380.707 207.137 378.118 197.602Z" fill="#C9CACA"/>
<path fill-rule="evenodd" clip-rule="evenodd" d="M394.615 193.63L397.228 193.081L396.367 190.443L398.942 189.579L399.96 192.605L402.636 192.061C408.662 200.241 396.788 203.267 394.615 193.63Z" fill="#C9CACA"/>
<path fill-rule="evenodd" clip-rule="evenodd" d="M340.925 203.478L206.803 287.194L199.51 289.896L339.264 202.487L340.925 203.478Z" fill="#5F5D5D"/>
<path fill-rule="evenodd" clip-rule="evenodd" d="M295.919 231.569C296.162 232.477 296.989 233.849 296.693 234.458C297.098 234.8 295.777 236.621 294.885 238.862C298.528 240.808 308.654 244.859 312.962 238.292C317.206 231.399 329.608 219.502 330.897 209.68L295.919 231.569Z" fill="url(#paint0_linear_53_129)"/>
<path fill-rule="evenodd" clip-rule="evenodd" d="M163.041 287.768C163.845 295.843 164.58 303.222 165.383 311.296C221.539 275.951 277.764 241.303 333.92 205.959C340.933 203.114 346.838 204.552 352.31 207.66C369.98 197.278 389.593 191.517 410.961 189.934C409.389 176.887 404.936 164.777 395.943 154.142C377.339 166.429 356.871 174.749 338.545 179.04C336.479 185.892 331.3 189.376 324.908 189.949C270.952 222.555 216.996 255.162 163.041 287.768Z" fill="url(#paint1_linear_53_129)" stroke="#C9CACA" stroke-width="0.377953" stroke-miterlimit="22.9256"/>
<path fill-rule="evenodd" clip-rule="evenodd" d="M327.846 189.455L338.501 204.659C343.572 203.848 348.071 205.252 352.31 207.66C369.98 197.278 389.593 191.517 410.961 189.934C409.389 176.887 404.936 164.777 395.943 154.142C377.339 166.429 356.871 174.749 338.545 179.04C336.806 184.807 332.862 188.187 327.846 189.455Z" fill="#474443"/>
<path fill-rule="evenodd" clip-rule="evenodd" d="M172.596 306.76L170.885 319.498C156.533 338.094 139.889 352.752 122.853 366.738L117.423 366.109C115.961 355.107 115.495 345.055 116.939 336.824L165.56 308.504L172.596 306.76Z" fill="#EEEEEF"/>
<path fill-rule="evenodd" clip-rule="evenodd" d="M162.786 285.29L166.178 313.675L152.779 321.34L149.286 293.619L162.786 285.29Z" fill="#C9CACA"/>
<path fill-rule="evenodd" clip-rule="evenodd" d="M127.267 305.007L129.849 332.538L116.401 340.788L113.773 311.793L127.267 305.007Z" fill="#757475"/>
<path d="M108.141 314.793C107.955 313.661 106.886 312.893 105.753 313.08C104.62 313.266 103.853 314.335 104.039 315.467L108.603 343.246C108.789 344.379 109.858 345.146 110.991 344.96C112.123 344.774 112.891 343.705 112.705 342.572L108.141 314.793Z" fill="#757475"/>
<path d="M98.4137 319.692C98.2863 318.342 97.089 317.352 95.7394 317.479C94.3899 317.607 93.3992 318.804 93.5266 320.153L96.6521 353.251C96.7795 354.6 97.9768 355.591 99.3264 355.463C100.676 355.336 101.667 354.139 101.539 352.789L98.4137 319.692Z" fill="#757475"/>
<path fill-rule="evenodd" clip-rule="evenodd" d="M350.593 179.991L352.623 173.745L355.375 179.156C355.832 181.495 351.048 181.999 350.593 179.991Z" fill="#C9CACA"/>
<path d="M351.808 178.067L326.484 192.348L97.546 328.02" stroke="#B6B6B7" stroke-width="0.755906" stroke-miterlimit="22.9256"/>
<path fill-rule="evenodd" clip-rule="evenodd" d="M366.964 173.827L368.995 167.582L371.746 172.993C372.203 175.332 367.419 175.836 366.964 173.827Z" fill="#C9CACA"/>
<path d="M368.947 172.106L327.21 194.391L97.8199 331.391" stroke="#B6B6B7" stroke-width="0.755906" stroke-miterlimit="22.9256"/>
<path d="M384.096 165.01L329.101 196.677L98.1854 334.375" stroke="#B6B6B7" stroke-width="0.755906" stroke-miterlimit="22.9256"/>
<path d="M392.58 180.784C371.193 185.952 349.933 191.364 329.805 198.922L98.8246 337.586" stroke="#B6B6B7" stroke-width="0.755906" stroke-miterlimit="22.9256"/>
<path d="M377.872 186.113C360.651 190.473 344.923 195.437 331.319 201.257L98.7294 341.241" stroke="#B6B6B7" stroke-width="0.755906" stroke-miterlimit="22.9256"/>
<path d="M360.651 192.206L333.346 203.235L98.7883 344.934" stroke="#B6B6B7" stroke-width="0.755906" stroke-miterlimit="22.9256"/>
<path fill-rule="evenodd" clip-rule="evenodd" d="M381.613 167.493L383.643 161.247L386.394 166.658C386.851 168.997 382.067 169.501 381.613 167.493Z" fill="#C9CACA"/>
<path fill-rule="evenodd" clip-rule="evenodd" d="M390.096 183.266L392.127 177.021L394.878 182.432C395.335 184.771 390.551 185.274 390.096 183.266Z" fill="#C9CACA"/>
<path fill-rule="evenodd" clip-rule="evenodd" d="M375.175 187.351L377.205 181.105L379.957 186.517C380.414 188.855 375.63 189.359 375.175 187.351Z" fill="#C9CACA"/>
<path fill-rule="evenodd" clip-rule="evenodd" d="M358.562 193.428L360.592 187.182L363.344 192.594C363.801 194.932 359.017 195.436 358.562 193.428Z" fill="#C9CACA"/>
<path fill-rule="evenodd" clip-rule="evenodd" d="M296.805 219.073C298.205 218.37 305.126 224.364 309.286 227.01C310.073 229.58 311.504 233.431 311.838 236.423C310.787 238.471 306.409 237.949 304.024 237.022C302.948 234.097 302.538 231.872 301.462 228.947C300.032 225.99 295.255 223.178 296.805 219.073Z" fill="#FEFEFE"/>
<path d="M296.636 218.736C297.776 218.165 301.256 220.741 304.736 223.317C306.425 224.568 308.114 225.819 309.488 226.692L309.607 226.768L309.648 226.9C309.826 227.485 310.025 228.094 310.235 228.741C311.01 231.124 311.949 234.007 312.213 236.381L312.225 236.492L312.173 236.594C311.647 237.62 310.449 238.084 309.053 238.19C307.335 238.321 305.281 237.914 303.888 237.373L303.728 237.311L303.669 237.151C303.129 235.682 302.754 234.385 302.38 233.089C302.013 231.815 301.644 230.541 301.112 229.091C300.676 228.201 299.903 227.298 299.104 226.366C297.275 224.232 295.317 221.946 296.451 218.939L296.503 218.802L296.636 218.736ZM304.287 223.922C301.154 221.602 298.02 219.283 297.097 219.376C296.26 221.887 298.025 223.948 299.677 225.874C300.514 226.852 301.325 227.798 301.801 228.783L301.816 228.818C302.357 230.286 302.732 231.584 303.105 232.88C303.46 234.111 303.816 235.342 304.32 236.73C305.62 237.208 307.455 237.556 308.996 237.438C310.098 237.354 311.033 237.032 311.449 236.348C311.175 234.067 310.268 231.282 309.517 228.973C309.315 228.351 309.124 227.762 308.966 227.252C307.589 226.366 305.937 225.144 304.287 223.922Z" fill="url(#paint2_linear_53_129)"/>
<path fill-rule="evenodd" clip-rule="evenodd" d="M317.031 231.346C318.903 232.072 326.259 229.12 327.488 227.236C328.222 222.905 327.328 219.28 327.422 214.344C327.544 212.941 321.507 212.249 317.252 210.554C314.554 209.001 308.364 206.461 306.379 207.81C306.228 212.136 310.655 213.595 314.74 215.983C317.279 217.663 317.362 218.008 319.901 219.688C319.175 221.1 318.147 224.004 317.421 225.417C317.838 226.853 316.615 229.909 317.031 231.346Z" fill="#FEFEFE" stroke="#DCDDDD" stroke-width="0.755906" stroke-miterlimit="22.9256"/>
<path fill-rule="evenodd" clip-rule="evenodd" d="M311.212 233.437C313.085 234.163 317.122 236.213 318.35 234.329C319.084 229.998 320.122 225.927 320.552 221.335C320.674 219.932 311.496 216.206 306.967 213.64C304.27 212.088 300.696 208.753 298.874 208.982C298.198 214.04 300.441 217.461 304.526 219.849C307.065 221.529 309.604 223.209 312.143 224.889C311.417 226.303 310.691 227.715 309.965 229.128C310.381 230.564 310.796 232.001 311.212 233.437Z" fill="#FEFEFE" stroke="#DCDDDD" stroke-width="0.755906" stroke-miterlimit="22.9256"/>
<path fill-rule="evenodd" clip-rule="evenodd" d="M327.779 223.291C329.593 221.681 332.181 221.222 333.222 218.46C334.548 215.115 335.017 211.157 334.879 206.76C329.379 204.763 319.52 202.642 317.58 204.283C319.022 209.211 324.105 209.1 329.194 210.19C328.871 212.986 327.861 215.758 327.537 218.554C327.618 220.133 327.698 221.712 327.779 223.291Z" fill="#FEFEFE" stroke="#DCDDDD" stroke-width="0.755906" stroke-miterlimit="22.9256"/>
<path fill-rule="evenodd" clip-rule="evenodd" d="M81.0033 291.051C73.5191 296.686 69.4297 306.277 62.0358 315.501C59.8554 318.417 59.3451 322.791 58 326.436C62.4591 334.177 64.5076 334.681 66.0678 335.641C67.1567 331.941 65.4264 329.471 63.7887 326.96C63.5688 324.704 63.9739 321.938 64.9347 318.719C65.2601 320.703 65.5855 322.685 65.9109 324.668C67.3241 329.212 69.1462 332.865 71.3346 335.716C72.7969 336.951 74.3257 336.275 75.8413 335.98C76.8791 331.894 77.9174 327.808 78.9552 323.723C79.727 322.137 80.1193 321.33 80.8915 319.744C82.438 318.543 84.0545 316.511 85.5161 316.222C84.0194 319.432 83.5466 320.876 82.1788 324.524C80.3733 328.758 80.4988 333.224 82.1005 335.338C83.6433 333.743 85.7308 330.391 87.246 328.042C88.3356 325.571 88.8474 322.704 89.9366 320.233C91.4987 317.563 93.0608 314.893 94.6232 312.223C96.1842 308.922 95.0326 305.025 95.3591 300.313C106.808 291.994 123.487 281.801 131.588 273.074C136 267.725 139.419 261.811 143.83 256.461C144.976 252.66 145.231 251.704 146.377 247.903C141.853 243.08 137.331 238.258 132.807 233.436C127.114 242.328 121.558 254.477 115.864 263.368C104.289 273.681 92.5781 280.737 81.0033 291.051Z" fill="#EEEEEF" stroke="#DCDDDD" stroke-width="0.755906" stroke-miterlimit="22.9256"/>
<path fill-rule="evenodd" clip-rule="evenodd" d="M73.868 316.933C73.3347 318.26 72.6948 320.885 72.561 322.064C72.6627 327.311 72.8698 329.756 73.4662 333.156C75.3035 335.588 77.8849 336.286 80.9399 337.16C80.9939 337.135 81.0347 337.079 81.0642 337C80.3692 336.515 79.7565 335.905 79.244 335.144C78.849 334.691 78.843 333.571 79.5036 332.177C78.3055 329.379 78.425 327.623 78.849 324.141C79.622 321.858 80.3945 319.576 81.1674 317.294C78.7341 317.173 76.3013 317.053 73.868 316.933Z" fill="url(#paint3_linear_53_129)"/>
<path fill-rule="evenodd" clip-rule="evenodd" d="M166.497 175.28C163.364 176.638 158.095 182.494 155.807 184.631C150.323 189.301 137.109 227.969 131.522 231.372C133.637 238.709 140.381 243.601 146.491 247.984C146.82 246.679 147.145 245.361 147.465 244.027C142.064 229.789 141.277 217.472 143.894 210.6C146.396 204.029 159.161 196.019 166.497 175.28Z" fill="url(#paint4_linear_53_129)"/>
<path fill-rule="evenodd" clip-rule="evenodd" d="M238.306 158.285C219.726 186.17 201.747 207.117 188.035 259.809C188.748 262.225 193.192 266.559 194.78 268.588C198.141 266.556 198.151 266.551 201.513 264.519C201.816 239.201 219.37 201.14 238.519 170.942C242.84 166.529 247.585 159.691 254.059 158.104C253.914 157.129 245.024 156.409 238.306 158.285Z" fill="#DCDDDD"/>
<path fill-rule="evenodd" clip-rule="evenodd" d="M189.45 78.2148L173.175 96.5524C172.498 97.7682 175.344 99.4331 176.378 98.5075L191.127 81.2116L189.45 78.2148Z" fill="#8B8B8C"/>
<path fill-rule="evenodd" clip-rule="evenodd" d="M197.201 106.355C195.844 91.0713 192.832 82.5156 187.412 74.6387C191.544 85.6159 193.514 94.0613 194.769 105.652C195.938 105.998 196.032 106.009 197.201 106.355Z" fill="#474443"/>
<path fill-rule="evenodd" clip-rule="evenodd" d="M161.026 142.783C163.609 145.723 173.289 151.975 175.848 137.349C170.907 139.161 165.967 140.972 161.026 142.783Z" fill="#757475"/>
</g>
<defs>
<linearGradient id="paint0_linear_53_129" x1="305.169" y1="231.971" x2="301.475" y2="241.368" gradientUnits="userSpaceOnUse">
<stop stop-color="#DCDDDD"/>
<stop offset="1" stop-color="#FEFEFE"/>
</linearGradient>
<linearGradient id="paint1_linear_53_129" x1="325.016" y1="199.113" x2="333.355" y2="196.089" gradientUnits="userSpaceOnUse">
<stop stop-color="#757475"/>
<stop offset="1" stop-color="#5F5D5D"/>
</linearGradient>
<linearGradient id="paint2_linear_53_129" x1="306.654" y1="232.176" x2="304.32" y2="236.73" gradientUnits="userSpaceOnUse">
<stop stop-color="#C9CACA"/>
<stop offset="1" stop-color="#EEEEEF"/>
</linearGradient>
<linearGradient id="paint3_linear_53_129" x1="75.9558" y1="324.02" x2="77.5175" y2="317.113" gradientUnits="userSpaceOnUse">
<stop stop-color="#DCDDDD"/>
<stop offset="1" stop-color="#EEEEEF"/>
</linearGradient>
<linearGradient id="paint4_linear_53_129" x1="131.05" y1="248.926" x2="154.657" y2="203.053" gradientUnits="userSpaceOnUse">
<stop stop-color="#332C2B"/>
<stop offset="1" stop-color="#474443"/>
</linearGradient>
<clipPath id="clip0_53_129">
<rect width="426" height="318" fill="white"/>
</clipPath>
</defs>
</svg>
