<svg width="666" height="945" viewBox="0 0 666 945" fill="none" xmlns="http://www.w3.org/2000/svg">
<path fill-rule="evenodd" clip-rule="evenodd" d="M261.882 476.714L279.532 492.668L290.343 447.818C277.17 450.967 267.258 459.921 261.882 476.714Z" fill="#C9CACA"/>
<path fill-rule="evenodd" clip-rule="evenodd" d="M276.038 763.302C277.613 773.85 281.486 778.767 286.394 781.148C286.357 784.417 286.504 789.222 286.904 792.428C296.358 812.117 320.626 810.941 337.845 803.142C338.301 801.682 338.772 798.173 338.126 796.735C337.084 795.673 336.167 795.11 335.126 794.048C315.43 783.799 295.734 773.55 276.038 763.302Z" fill="#A1A1A1"/>
<path fill-rule="evenodd" clip-rule="evenodd" d="M272.657 750.455C273.907 755.206 275.157 759.955 276.407 764.705C278.671 770.179 281.728 774.148 285.657 776.456C286.387 781.101 287.116 785.747 287.845 790.393C296.949 806.052 324.379 806.068 337.47 796.768C337.137 791.143 334.178 786.018 332.345 784.393C328.751 778.641 325.377 781.083 317.408 765.831C315.783 761.58 314.158 757.331 312.533 753.081C299.241 752.206 285.949 751.33 272.657 750.455Z" fill="#474443"/>
<path d="M281.713 752.748L281.475 751.784L281.788 751.804L281.837 751.06L280.499 750.972L280.98 752.931L281.713 752.748ZM333.124 785.216C333.046 785.121 332.969 785.031 332.893 784.945L332.972 785.068L333.013 785.104L332.972 785.055C333.02 785.11 333.071 785.163 333.124 785.216ZM330.725 782.27C330.372 781.893 330.013 781.556 329.646 781.237L329.571 781.33C329.939 781.599 330.362 781.984 330.701 782.295L330.725 782.27ZM329.069 780.753C328.687 780.441 328.292 780.134 327.881 779.807L327.797 779.909C328.189 780.232 328.588 780.543 328.982 780.863L329.069 780.753ZM327.288 779.328C326.917 779.023 326.533 778.695 326.131 778.326L326.092 778.365C326.45 778.723 326.833 779.08 327.215 779.412L327.288 779.328ZM325.574 777.799C325.422 777.651 325.268 777.496 325.111 777.335C325.257 777.497 325.405 777.657 325.556 777.816L325.574 777.799ZM312.826 753.847L312.533 753.081L312.007 753.046L311.958 753.79L312.826 753.847ZM311.253 752.996L309.745 752.897L309.696 753.642L311.204 753.741L311.253 752.996ZM308.991 752.847L307.483 752.748L307.433 753.493L308.942 753.592L308.991 752.847ZM306.729 752.699L305.22 752.599L305.171 753.344L306.679 753.443L306.729 752.699ZM304.466 752.55L302.958 752.45L302.909 753.195L304.417 753.295L304.466 752.55ZM302.204 752.401L300.695 752.301L300.646 753.046L302.155 753.146L302.204 752.401ZM299.941 752.251L298.433 752.152L298.384 752.897L299.892 752.997L299.941 752.251ZM297.679 752.103L296.17 752.004L296.121 752.748L297.63 752.848L297.679 752.103ZM295.416 751.954L293.907 751.855L293.858 752.6L295.367 752.699L295.416 751.954ZM293.153 751.805L291.644 751.705L291.595 752.451L293.104 752.55L293.153 751.805ZM290.89 751.656L289.381 751.556L289.332 752.302L290.841 752.401L290.89 751.656ZM288.627 751.507L287.118 751.407L287.069 752.153L288.577 752.252L288.627 751.507ZM286.363 751.358L284.855 751.259L284.805 752.003L286.314 752.103L286.363 751.358ZM284.1 751.209L282.591 751.109L282.542 751.853L284.051 751.953L284.1 751.209ZM334.871 789C334.404 789.182 333.936 789.356 333.465 789.527L333.719 790.239C334.197 790.067 334.673 789.889 335.146 789.705L334.871 789ZM332.757 789.775C332.283 789.936 331.809 790.09 331.331 790.24L331.553 790.963C332.038 790.813 332.52 790.654 333 790.491L332.757 789.775ZM330.613 790.457C330.132 790.598 329.651 790.731 329.166 790.858L329.357 791.59C329.848 791.461 330.336 791.325 330.823 791.183L330.613 790.457ZM328.439 791.042C327.951 791.156 327.467 791.269 326.977 791.373L327.131 792.113C327.629 792.007 328.122 791.892 328.618 791.776L328.439 791.042ZM326.242 791.52C325.754 791.613 325.258 791.705 324.766 791.778L324.881 792.525C325.383 792.447 325.885 792.358 326.384 792.262L326.242 791.52ZM324.025 791.888C323.529 791.956 323.035 792.014 322.537 792.068L322.613 792.82C323.119 792.768 323.623 792.706 324.126 792.637L324.025 791.888ZM321.791 792.138C321.293 792.179 320.797 792.211 320.297 792.236L320.331 792.991C320.84 792.967 321.346 792.933 321.853 792.892L321.791 792.138ZM319.55 792.264C319.051 792.277 318.552 792.283 318.052 792.276L318.042 793.032C318.551 793.039 319.059 793.033 319.567 793.02L319.55 792.264ZM317.303 792.261C316.809 792.246 316.303 792.223 315.81 792.184L315.753 792.937C316.261 792.975 316.77 793.001 317.279 793.016L317.303 792.261ZM315.064 792.122C314.568 792.078 314.071 792.019 313.577 791.953L313.475 792.703C313.979 792.77 314.486 792.829 314.993 792.875L315.064 792.122ZM312.838 791.846C312.345 791.768 311.855 791.681 311.365 791.582L311.215 792.323C311.716 792.423 312.215 792.512 312.718 792.592L312.838 791.846ZM310.635 791.427C310.148 791.318 309.665 791.199 309.182 791.069L308.984 791.799C309.477 791.93 309.969 792.052 310.467 792.164L310.635 791.427ZM308.463 790.866C307.988 790.73 307.506 790.574 307.038 790.413L306.792 791.127C307.269 791.293 307.763 791.452 308.249 791.591L308.463 790.866ZM306.333 790.163C305.868 789.993 305.4 789.81 304.943 789.617L304.648 790.313C305.117 790.51 305.594 790.698 306.072 790.872L306.333 790.163ZM304.256 789.32C303.799 789.118 303.349 788.905 302.903 788.683L302.565 789.36C303.022 789.586 303.481 789.804 303.947 790.01L304.256 789.32ZM302.238 788.343C301.796 788.11 301.361 787.87 300.929 787.619L300.548 788.271C300.986 788.528 301.434 788.773 301.884 789.011L302.238 788.343ZM300.287 787.235C299.861 786.977 299.441 786.707 299.027 786.429L298.605 787.056C299.028 787.339 299.457 787.615 299.891 787.88L300.287 787.235ZM298.409 786.006C298.001 785.726 297.596 785.422 297.201 785.123L296.743 785.724C297.146 786.029 297.558 786.34 297.976 786.625L298.409 786.006ZM296.612 784.663C296.22 784.358 295.834 784.032 295.458 783.708L294.965 784.281C295.35 784.61 295.741 784.944 296.141 785.255L296.612 784.663ZM294.896 783.215C294.523 782.885 294.157 782.542 293.798 782.196L293.272 782.739C293.637 783.091 294.011 783.442 294.391 783.778L294.896 783.215ZM293.264 781.672L292.819 781.22L292.629 780.562L291.903 780.772L292.145 781.61L292.728 782.205L293.264 781.672ZM292.42 779.836L291.694 780.045L291.275 778.592L292.001 778.383L292.42 779.836ZM291.792 777.657L291.065 777.866L290.647 776.413L291.373 776.204L291.792 777.657ZM291.164 775.478L290.438 775.687L290.02 774.235L290.746 774.025L291.164 775.478ZM290.098 773.342C289.743 773.024 289.408 772.654 289.114 772.28L288.521 772.749C288.847 773.158 289.199 773.551 289.589 773.902L290.098 773.342ZM288.675 771.69C288.388 771.283 288.136 770.871 287.881 770.443L287.227 770.822C287.479 771.262 287.763 771.71 288.055 772.124L288.675 771.69ZM287.518 769.795C287.282 769.355 287.061 768.912 286.846 768.462L286.162 768.786C286.384 769.247 286.61 769.702 286.852 770.152L287.518 769.795ZM286.532 767.782C286.327 767.326 286.133 766.867 285.943 766.405L285.243 766.69C285.437 767.161 285.634 767.628 285.843 768.092L286.532 767.782ZM285.664 765.708C285.485 765.24 285.307 764.773 285.133 764.302L284.423 764.561L284.96 765.983L285.664 765.708ZM284.881 763.594C284.714 763.122 284.551 762.646 284.396 762.17L283.678 762.407C283.838 762.887 283.999 763.367 284.168 763.845L284.881 763.594ZM284.162 761.454L283.712 760.018L282.989 760.237L283.443 761.686L284.162 761.454ZM283.495 759.296L283.073 757.848L282.346 758.055L282.77 759.511L283.495 759.296ZM282.868 757.123L282.47 755.668L281.74 755.864L282.14 757.325L282.868 757.123ZM282.277 754.939L281.898 753.479L281.165 753.665L281.546 755.131L282.277 754.939Z" fill="#757475"/>
<path fill-rule="evenodd" clip-rule="evenodd" d="M342.218 488.642C352.593 518.85 364.593 549.434 374.967 579.642C364.718 624.725 356.843 669.434 346.593 714.517C344.427 722.934 346.759 736.351 347.593 747.517C361.759 744.684 372.31 742.899 386.477 740.066C384.81 733.399 382.635 726.309 380.968 719.642C389.435 674.883 395.901 629.067 413.093 578.267C415.309 565.063 387.025 501.859 383.491 455.905C369.733 466.817 355.975 477.73 342.218 488.642Z" fill="url(#paint0_linear_42_2814)"/>
<path fill-rule="evenodd" clip-rule="evenodd" d="M272.03 444.704C271.114 493.288 270.197 541.871 269.28 590.454C266.447 606.287 263.614 622.121 260.78 637.954C264.697 668.038 268.412 696.566 272.328 726.65C270.154 740.713 268.351 745.149 265.781 749.829C273.963 760.538 291.591 759.17 314.781 755.204C311.447 741.205 308.114 727.205 304.781 713.205C303.727 631.004 319.334 563.083 337.031 496.954L383.491 455.905L370.906 414.579L272.03 444.704Z" fill="#5F5D5D"/>
<path fill-rule="evenodd" clip-rule="evenodd" d="M316.032 759.642C308.101 757.35 294.359 759.581 287.969 764.455C286.828 765.408 289.121 769.381 290.959 768.76C289.708 770.253 290.555 773.691 291.969 774.205C299.003 769.165 307.724 766.823 318.091 767.116C317.405 764.624 316.718 762.133 316.032 759.642Z" fill="#5F5D5D"/>
<path d="M316.938 762.929C308.972 762.426 301.498 763.561 294.532 766.392" stroke="#474443" stroke-width="0.755906" stroke-miterlimit="22.9256"/>
<path fill-rule="evenodd" clip-rule="evenodd" d="M349.829 745.642C350.145 751.29 350.461 756.937 350.777 762.585C353.948 764.896 357.638 766.829 361.678 768.509C362.744 768.351 363.81 768.193 364.877 768.035C368.272 773.865 373.369 778.674 379.924 782.609C397.692 792.128 414.426 790.569 426.015 785.926C426.063 783.69 425.65 782.081 424.83 781.424C425.326 779.75 425.361 777.569 425.067 775.026C419.814 767.878 413.174 767.445 407.887 762.822C402.419 758.04 396.684 753.862 391.708 748.57C387.995 745.963 385.532 741.731 381.82 739.125C371.156 741.297 360.493 743.469 349.829 745.642Z" fill="#332C2B"/>
<path fill-rule="evenodd" clip-rule="evenodd" d="M328.271 193.161C316.617 186.52 302.405 187.799 290.751 181.16C268.234 183.332 272.152 212.916 250.975 210.702C261.485 220.719 270.366 221.433 278.63 218.621C261.431 233.707 281.147 245.14 280.762 258.764C284.536 254.979 290.999 249.31 291.848 240.977C293.073 248.701 296.323 251.231 305.791 252.227C309.184 246.203 312.577 240.179 315.97 234.155C319.217 223.129 325.023 204.186 328.271 193.161Z" fill="#B6B6B7"/>
<path fill-rule="evenodd" clip-rule="evenodd" d="M318.095 218.829C313.498 238.888 307.172 243.746 304.698 257.182C314.688 272.37 324.678 287.558 334.668 302.745C335.318 296.411 335.968 290.075 336.617 283.74C337.644 273.316 340.444 266.483 344.082 258.669C336.123 247.136 326.054 230.363 318.095 218.829Z" fill="#EEEEEF"/>
<path fill-rule="evenodd" clip-rule="evenodd" d="M393.058 207.506C389.945 216.125 383.511 224.174 376.824 232.144L375.119 226.783L387.367 204.122L393.058 207.506Z" fill="#A1A1A1"/>
<path d="M375.452 236.339C377.839 238.081 382.235 236.119 385.272 231.958C388.309 227.796 388.836 223.011 386.449 221.269C384.062 219.527 379.665 221.489 376.628 225.65C373.592 229.811 373.065 234.597 375.452 236.339Z" stroke="#0284C7" stroke-width="1.72303" stroke-miterlimit="22.9256"/>
<path fill-rule="evenodd" clip-rule="evenodd" d="M319.135 223.313C319.163 229.55 318.341 232.053 319.581 235.739C320.906 239.685 348.498 264.736 352.152 265.284C364.069 263.436 377.939 250.401 384.983 239.212C381.554 235.818 379.124 232.752 376.67 228.059C380.162 221.439 384.11 214.46 386.627 207.231C400.717 176.911 331.592 143.638 328.759 182.013C327.866 188.429 326.972 194.846 326.079 201.262C315.287 188.51 296.686 216.621 319.135 223.313Z" fill="#FEFEFE" stroke="#C9CACA" stroke-width="0.288" stroke-miterlimit="22.9256"/>
<path fill-rule="evenodd" clip-rule="evenodd" d="M384.706 209.974C379.077 217.324 373.851 223.076 371.339 227.769L379.732 239.378C373.71 250.296 363.751 258.197 351.877 265.863C363.794 264.014 377.664 250.98 384.708 239.79C381.279 236.396 378.849 233.331 376.395 228.638C379.391 222.959 382.722 217.015 385.198 210.876L384.706 209.974Z" fill="url(#paint1_linear_42_2814)"/>
<path d="M355.645 220.687C358.032 222.077 361.32 220.882 362.989 218.018C364.658 215.153 364.075 211.703 361.688 210.313C359.301 208.922 356.012 210.117 354.344 212.982C352.675 215.846 353.257 219.296 355.645 220.687Z" fill="#757475"/>
<path fill-rule="evenodd" clip-rule="evenodd" d="M349.026 201.839C357.982 202.89 367.017 211.062 364.986 216.58C360.391 209.894 355.083 204.951 349.026 201.839Z" fill="#5F5D5D"/>
<path d="M372.865 224.975C376.76 222.362 378.718 222.92 378.242 225.567" stroke="#0284C7" stroke-width="0.944882" stroke-miterlimit="22.9256" stroke-linecap="round"/>
<path d="M372.168 211.579C374.126 212.79 375.074 215.216 375.024 218.173C374.974 221.059 373.97 224.475 372.025 227.735L372.023 227.738C370.077 231 367.547 233.506 365.031 234.92C362.423 236.384 359.806 236.693 357.801 235.496C355.797 234.3 354.826 231.85 354.878 228.859C354.927 225.973 355.932 222.556 357.878 219.295L357.891 219.271C359.837 216.02 362.361 213.523 364.87 212.113C367.418 210.682 369.974 210.356 371.961 211.458H372.046L372.168 211.579ZM373.923 218.156C373.967 215.562 373.175 213.466 371.539 212.486L371.534 212.483C369.896 211.505 367.979 211.865 365.713 213.138C363.595 214.64 362.247 216.281 360.511 218.851L360.498 218.874C358.477 221.657 356.33 225.388 356.161 228.876C356.117 231.474 356.727 233.571 358.366 234.55C360.005 235.528 362.227 235.229 364.492 233.957C366.85 232.632 369.232 230.265 371.077 227.173C372.925 224.078 373.877 220.859 373.923 218.156Z" fill="#0EA5E9"/>
<path d="M359.341 218.054L331.102 199.445" stroke="#0EA5E9" stroke-width="2.83465" stroke-miterlimit="22.9256"/>
<path fill-rule="evenodd" clip-rule="evenodd" d="M290.814 182.987C295.484 156.04 332.446 129.351 357.095 149.675C354.94 146.835 353.768 142.93 353.562 137.979C368.131 160.385 405.048 155.129 393.058 207.506C390.56 206.482 387.114 212.33 384.616 211.306C377.737 195.34 363.673 179.797 343.21 175.75C340.43 191.796 334.727 201.766 326.749 204.003C325.522 201.698 323.259 196.47 322.033 194.165C311.626 190.439 301.22 186.713 290.814 182.987Z" fill="#B6B6B7"/>
<path fill-rule="evenodd" clip-rule="evenodd" d="M369.355 151.92C373.505 161.763 378.314 171.602 379.875 180.272C381.185 187.55 379.692 193.861 378.637 200.069C381.074 203.667 382.98 207.511 384.615 211.306C387.114 212.33 390.56 206.482 393.058 207.506C397.914 186.294 394.747 174.536 388.294 166.564L382.264 160.682C378.221 157.46 373.799 154.742 369.355 151.92Z" fill="#A1A1A1"/>
<path fill-rule="evenodd" clip-rule="evenodd" d="M327.667 281.789C329.471 276.323 331.386 270.199 333.515 262.783C321.104 260.083 310.07 254.844 300.744 246.459L293.312 264.002C280.935 270.583 272.431 276.183 263.952 283.738L254.246 289.924C246.505 306.921 247.678 312.535 252.606 324.008C262.19 347.765 273.043 365.778 280.941 391.265C275.459 417.052 267.364 450.928 261.881 476.714C266.787 465.52 274.518 454.045 286.613 455.882C297.744 457.573 320.562 481.384 346.308 478.786C352.56 461.775 359.626 444.468 369.455 426.156L389.923 476.837L380.967 430.171L367.202 376.876C368.034 341.379 369.658 315.033 373.416 304.876C365.809 296.891 356.738 290.283 346.37 284.896L336.561 284.287L333.875 296.979L327.667 281.789Z" fill="#FEFEFE" stroke="#C9CACA" stroke-width="0.566929" stroke-miterlimit="22.9256"/>
<path fill-rule="evenodd" clip-rule="evenodd" d="M333.699 297.81C350.388 323.376 348.475 346.544 352.335 370.123L369.455 426.156L389.923 476.837L380.164 427.064L367.202 376.876C368.034 341.379 369.658 315.033 373.416 304.876C365.894 296.98 356.941 290.431 346.718 285.078C348.317 280.531 349.448 276.828 354.38 269.698C350.266 268.738 345.229 266.907 340.963 265.804C338.876 271.074 337.325 276.554 336.617 283.74L336.561 284.288L333.699 297.81ZM336.561 284.287V284.288V284.287Z" fill="url(#paint2_linear_42_2814)"/>
<path fill-rule="evenodd" clip-rule="evenodd" d="M405.677 404.005C407.799 410.501 393.332 423.896 390.334 424.374C386.477 422.996 382.606 419.995 380.13 417.155C379.613 414.404 380.009 412.323 379.491 409.572C382.231 409.274 385.319 411.697 387.227 415.785C387.189 413.06 387.514 409.771 388.585 407.226C394.889 406.038 399.373 405.193 405.677 404.005Z" fill="#EEEEEF" stroke="#C9CACA" stroke-width="0.288" stroke-miterlimit="22.9256"/>
<path fill-rule="evenodd" clip-rule="evenodd" d="M380.558 408.2C383.232 414.233 392.603 414.338 405.959 406.86C406.529 404.025 405.713 400.397 404.01 396.262C396.674 394.246 389.339 392.231 382.004 390.215C381.522 396.211 381.04 402.205 380.558 408.2Z" fill="url(#paint3_linear_42_2814)" stroke="#C9CACA" stroke-width="0.288" stroke-miterlimit="22.9256"/>
<path fill-rule="evenodd" clip-rule="evenodd" d="M388.629 314.849C385.623 309.611 382.618 304.372 379.613 299.133C387.406 298.593 400.754 294.245 411.852 288.413L405.684 303.641L388.629 314.849Z" fill="#C9CACA"/>
<path fill-rule="evenodd" clip-rule="evenodd" d="M270.625 435.584C276.594 419.865 282.319 409.994 289.993 402.073C309.973 404.347 333.051 412.135 354.186 416.357C359.758 388.287 336.617 378.254 318.378 362.721C305.32 340.836 293.031 310.218 278.267 300.272L251.358 300.969C246.981 311.422 248.111 313.696 252.088 322.956C260.922 346.712 271.357 367.508 280.941 391.265L270.625 435.584Z" fill="#EEEEEF"/>
<path fill-rule="evenodd" clip-rule="evenodd" d="M263.952 283.738C272.654 290.99 281.16 296.1 287.1 309.444L310.978 363.779L363.547 381.627L363.619 381.787L382.003 390.215C384.718 398.452 380.77 408.858 377.416 419.96C372.394 417.182 367.068 415.405 362.007 412.754C361.179 414.529 360.263 416.295 359.283 418.053L294.105 396.368C275.857 374.259 262.74 344.141 249.044 316.829C247.24 306.725 248.057 303.512 254.246 289.924L263.952 283.738Z" fill="#FEFEFE" stroke="#C9CACA" stroke-width="0.566929" stroke-miterlimit="22.9256"/>
<path fill-rule="evenodd" clip-rule="evenodd" d="M389.248 294.183C386.935 290.913 384.623 287.643 382.31 284.373C380.842 281.359 379.719 277.529 379.154 274.408C370.793 272.152 371.016 264.363 363.552 260.453C365.55 257.484 369.045 257.919 374.163 260.713C376.061 261.749 379.485 264.664 381.401 265.883C384.262 266.714 384.272 266.373 387.133 267.204C386.687 259.124 383.515 245.54 383.069 237.46C385.314 238.88 393.138 246.974 395.382 248.393L401.435 268.55L397.238 286.718C394.575 289.207 391.911 291.695 389.248 294.183Z" fill="#EEEEEF" stroke="#DCDDDD" stroke-width="0.566929" stroke-miterlimit="22.9256"/>
<path fill-rule="evenodd" clip-rule="evenodd" d="M389.124 248.661C387.419 243.159 385.714 237.657 384.01 232.155C382.662 228.19 382.047 227.879 380.7 223.914C379.578 220.85 379.677 217.965 382.427 215.466C383.842 218.869 385.256 222.271 386.669 225.674C389.063 231.846 390.725 234.364 393.119 240.536C394.925 243.081 396.123 247.575 397.93 250.12C398.72 253.514 398.423 253.528 398.38 255.809C395.246 253.618 392.259 250.852 389.124 248.661Z" fill="#EEEEEF" stroke="#DCDDDD" stroke-width="0.566929" stroke-miterlimit="22.9256"/>
<path fill-rule="evenodd" clip-rule="evenodd" d="M390.794 256.536C387.89 251.561 384.987 246.587 382.083 241.612C379.875 238.054 380.118 237.915 377.91 234.356C376.125 231.625 375.569 228.792 377.685 225.737C379.831 228.732 379.527 228.307 381.673 231.303C385.398 236.775 389.124 242.247 392.85 247.719C395.185 249.79 397.52 251.861 399.855 253.932C401.391 257.06 400.966 258.583 401.439 260.815C397.891 259.389 394.342 257.962 390.794 256.536Z" fill="#FEFEFE" stroke="#DCDDDD" stroke-width="0.566929" stroke-miterlimit="22.9256"/>
<path fill-rule="evenodd" clip-rule="evenodd" d="M389.248 294.183C392.644 285.948 395.855 280.458 396.707 269.698C396.528 265.97 396.482 263.407 395.648 260.203C387.052 259.024 380.815 259.73 380.747 254.256C386.04 254.377 390.453 253.934 394.61 253.83C397.281 254.151 401.507 258.502 403.313 260.673C403.922 270.701 404.96 276.925 405.569 286.953L409.33 300.862L411.992 310.918L396.103 320.902C394.612 315.699 395.259 307.997 393.906 302.463C393.042 298.929 390.2 297.506 389.248 294.183Z" fill="#FEFEFE" stroke="#DCDDDD" stroke-width="0.566929" stroke-miterlimit="22.9256"/>
<path fill-rule="evenodd" clip-rule="evenodd" d="M373.416 304.876L386.923 352.983L389.664 328.069L380.162 316.373C395.584 310.795 405.267 301.322 411.593 289.571L413.785 313.45L419.512 321.856C419.162 327.055 417.096 332.572 416.741 337.765C415.344 358.196 411.938 396.824 407.268 398.059C404.492 401.76 384.363 394.858 369.365 382.876L367.202 376.876C368.034 341.379 369.658 315.033 373.416 304.876Z" fill="#EEEEEF" stroke="#DCDDDD" stroke-width="0.755906" stroke-miterlimit="22.9256"/>
<path fill-rule="evenodd" clip-rule="evenodd" d="M361.438 197.312C368.59 198.765 375.414 204.169 376.283 208.568C376.185 209.423 375.31 209.489 374.596 210.347C370.001 203.661 367.495 200.424 361.438 197.312Z" fill="#B6B6B7"/>
<path d="M367.029 250.216C363.638 248.524 359.107 248.186 355.372 247.495" stroke="#8B8B8C" stroke-width="0.755906" stroke-miterlimit="22.9256"/>
<path d="M295.639 264.825C295.202 264.404 294.468 263.666 294.048 263.227L293.619 264.22C294.048 264.667 294.552 265.056 294.998 265.485L295.639 264.825ZM327.591 280.848C327.012 280.706 325.895 280.457 325.327 280.287L325.09 281.177C325.682 281.339 326.696 281.671 327.293 281.817L327.591 280.848ZM324.442 280.049C323.853 279.885 323.264 279.722 322.678 279.547L322.418 280.43C323.01 280.604 323.602 280.772 324.197 280.936L324.442 280.049ZM321.8 279.284C321.216 279.105 320.633 278.922 320.053 278.732L319.766 279.607C320.353 279.799 320.941 279.984 321.531 280.164L321.8 279.284ZM319.184 278.443C318.606 278.248 318.027 278.047 317.455 277.837L317.14 278.703C317.721 278.913 318.303 279.118 318.888 279.315L319.184 278.443ZM316.596 277.521C316.024 277.305 315.454 277.086 314.888 276.858L314.545 277.713C315.117 277.943 315.693 278.165 316.271 278.383L316.596 277.521ZM314.04 276.512C313.477 276.277 312.917 276.037 312.358 275.79L311.985 276.632C312.549 276.883 313.117 277.124 313.687 277.363L314.04 276.512ZM311.524 275.413C310.971 275.158 310.42 274.898 309.872 274.629L309.464 275.454C310.012 275.732 310.581 275.993 311.14 276.251L311.524 275.413ZM309.054 274.22C308.51 273.943 307.971 273.66 307.435 273.368L306.994 274.176C307.535 274.473 308.085 274.76 308.636 275.04L309.054 274.22ZM306.636 272.926C306.105 272.627 305.576 272.321 305.056 272.005L304.58 272.793C305.109 273.113 305.643 273.424 306.182 273.727L306.636 272.926ZM304.277 271.527C303.76 271.206 303.249 270.872 302.743 270.535L302.229 271.299C302.751 271.62 303.264 271.982 303.789 272.308L304.277 271.527ZM301.989 270.021C301.49 269.673 300.993 269.319 300.507 268.954L299.955 269.692C300.451 270.062 300.954 270.421 301.462 270.776L301.989 270.021ZM299.779 268.402C299.297 268.031 298.824 267.649 298.355 267.261L297.765 267.968C298.241 268.364 298.725 268.752 299.215 269.13L299.779 268.402ZM297.659 266.671C297.199 266.273 296.746 265.867 296.3 265.452L295.672 266.126C296.127 266.548 296.587 266.961 297.056 267.367L297.659 266.671Z" fill="#C9CACA"/>
<path fill-rule="evenodd" clip-rule="evenodd" d="M386.923 352.983L385.196 376.713C378.731 380.817 375.723 386.088 372.171 385.017C371.22 384.323 370.282 383.609 369.365 382.876L367.202 376.876C368.034 341.379 369.658 315.033 373.416 304.876L386.923 352.983Z" fill="url(#paint4_radial_42_2814)"/>
<path d="M413.786 313.45C408.782 320.824 399.461 327.194 389.664 328.069" stroke="#C9CACA" stroke-width="0.944882" stroke-miterlimit="22.9256" stroke-dasharray="1.89 0.94"/>
<path d="M363.62 381.787C366.877 390.448 366.184 400.793 362.008 412.754" stroke="#C9CACA" stroke-width="0.944882" stroke-miterlimit="22.9256" stroke-dasharray="1.89 0.94"/>
<path fill-rule="evenodd" clip-rule="evenodd" d="M260.215 286.467L264.418 283.726L267.464 281.106L293.619 305.542L302.322 318.097L283.347 306.431L260.215 286.467Z" fill="#FEFEFE"/>
<path d="M287.101 309.444C281.242 299.017 274.396 289.541 262.317 285.096" stroke="#C9CACA" stroke-width="0.944882" stroke-miterlimit="22.9256" stroke-dasharray="1.89 0.94"/>
<defs>
<linearGradient id="paint0_linear_42_2814" x1="371.836" y1="466.203" x2="374.568" y2="677.325" gradientUnits="userSpaceOnUse">
<stop stop-color="#5F5D5D"/>
<stop offset="1" stop-color="#332C2B"/>
</linearGradient>
<linearGradient id="paint1_linear_42_2814" x1="381.272" y1="244.693" x2="374.781" y2="240.469" gradientUnits="userSpaceOnUse">
<stop stop-color="#DCDDDD"/>
<stop offset="1" stop-color="#EEEEEF"/>
</linearGradient>
<linearGradient id="paint2_linear_42_2814" x1="341.001" y1="330.339" x2="351.442" y2="287.69" gradientUnits="userSpaceOnUse">
<stop stop-color="#EEEEEF"/>
<stop offset="1" stop-color="#DCDDDD"/>
</linearGradient>
<linearGradient id="paint3_linear_42_2814" x1="389.719" y1="410.092" x2="399.222" y2="399.615" gradientUnits="userSpaceOnUse">
<stop stop-color="#FEFEFE"/>
<stop offset="1" stop-color="#EEEEEF"/>
</linearGradient>
<radialGradient id="paint4_radial_42_2814" cx="0" cy="0" r="1" gradientTransform="matrix(14.5003 73.7499 -40.3755 0.624757 367.201 312.901)" gradientUnits="userSpaceOnUse">
<stop stop-color="#DCDDDD"/>
<stop offset="0.870588" stop-color="#E5E6E6"/>
<stop offset="1" stop-color="#EEEEEF"/>
</radialGradient>
</defs>
</svg>
